name C:/MyDriveSym/Projects/mobilecap/Data\Session20210819_0001\mocap\ForceDataProcessed\DJ2_forces.mot
datacolumns 28
datarows 16
range 2.03200000 2.03950000
endheader 
time	R_ground_force_vx	R_ground_force_vy	R_ground_force_vz	R_ground_force_px	R_ground_force_py	R_ground_force_pz	R_ground_torque_x	R_ground_torque_y	R_ground_torque_z	L_ground_force_vx	L_ground_force_vy	L_ground_force_vz	L_ground_force_px	L_ground_force_py	L_ground_force_pz	L_ground_torque_x	L_ground_torque_y	L_ground_torque_z	3_ground_force_vx	3_ground_force_vy	3_ground_force_vz	3_ground_force_px	3_ground_force_py	3_ground_force_pz	3_ground_torque_x	3_ground_torque_y	3_ground_torque_z	
          2.03200000	        -13.72039900	        490.15666700	        -59.13559700	         -0.21479500	          0.00600000	         -0.40069200	          0.00000000	         -0.99199800	          0.00000000	        -37.22755800	        498.80627500	         64.83630200	         -0.20669300	          0.00600000	         -0.72111700	          0.00000000	          5.57241000	          0.00000000	          0.00000000	          0.00000000	          0.00000000	          0.00000000	          0.00000000	          0.00000000	          0.00000000	          0.00000000	          0.00000000	
          2.03250000	        -13.91087800	        490.13554600	        -59.18718900	         -0.21462100	          0.00600000	         -0.40067800	          0.00000000	         -1.00437900	          0.00000000	        -37.51374800	        498.89279500	         65.02994300	         -0.20648900	          0.00600000	         -0.72122200	          0.00000000	          5.53980300	          0.00000000	          0.00000000	          0.00000000	          0.00000000	          0.00000000	          0.00000000	          0.00000000	          0.00000000	          0.00000000	          0.00000000	
          2.03300000	        -14.10129600	        490.11588700	        -59.23989600	         -0.21444700	          0.00600000	         -0.40066400	          0.00000000	         -1.01653500	          0.00000000	        -37.79445900	        498.98393800	         65.22627800	         -0.20628700	          0.00600000	         -0.72132800	          0.00000000	          5.50647700	          0.00000000	          0.00000000	          0.00000000	          0.00000000	          0.00000000	          0.00000000	          0.00000000	          0.00000000	          0.00000000	          0.00000000	
          2.03350000	        -14.29140200	        490.09778000	        -59.29371000	         -0.21427200	          0.00600000	         -0.40065000	          0.00000000	         -1.02846500	          0.00000000	        -38.06943900	        499.08002800	         65.42555600	         -0.20608600	          0.00600000	         -0.72143400	          0.00000000	          5.47242000	          0.00000000	          0.00000000	          0.00000000	          0.00000000	          0.00000000	          0.00000000	          0.00000000	          0.00000000	          0.00000000	          0.00000000	
          2.03400000	        -14.48093800	        490.08132000	        -59.34863300	         -0.21409700	          0.00600000	         -0.40063600	          0.00000000	         -1.04017300	          0.00000000	        -38.33846400	        499.18134600	         65.62800400	         -0.20588700	          0.00600000	         -0.72154000	          0.00000000	          5.43762700	          0.00000000	          0.00000000	          0.00000000	          0.00000000	          0.00000000	          0.00000000	          0.00000000	          0.00000000	          0.00000000	          0.00000000	
          2.03450000	        -14.66965400	        490.06659600	        -59.40465900	         -0.21392100	          0.00600000	         -0.40062100	          0.00000000	         -1.05166700	          0.00000000	        -38.60132600	        499.28810300	         65.83382800	         -0.20568900	          0.00600000	         -0.72164600	          0.00000000	          5.40209100	          0.00000000	          0.00000000	          0.00000000	          0.00000000	          0.00000000	          0.00000000	          0.00000000	          0.00000000	          0.00000000	          0.00000000	
          2.03500000	        -14.85731900	        490.05367600	        -59.46176800	         -0.21374400	          0.00600000	         -0.40060600	          0.00000000	         -1.06295800	          0.00000000	        -38.85783800	        499.40044800	         66.04322000	         -0.20549300	          0.00600000	         -0.72175300	          0.00000000	          5.36581200	          0.00000000	          0.00000000	          0.00000000	          0.00000000	          0.00000000	          0.00000000	          0.00000000	          0.00000000	          0.00000000	          0.00000000	
          2.03550000	        -15.04372300	        490.04261000	        -59.51991900	         -0.21356800	          0.00600000	         -0.40059100	          0.00000000	         -1.07406000	          0.00000000	        -39.10783000	        499.51848700	         66.25635800	         -0.20529800	          0.00600000	         -0.72185900	          0.00000000	          5.32880200	          0.00000000	          0.00000000	          0.00000000	          0.00000000	          0.00000000	          0.00000000	          0.00000000	          0.00000000	          0.00000000	          0.00000000	
          2.03600000	        -15.22866500	        490.03344600	        -59.57907000	         -0.21339000	          0.00600000	         -0.40057600	          0.00000000	         -1.08499200	          0.00000000	        -39.35115800	        499.64227100	         66.47340600	         -0.20510500	          0.00600000	         -0.72196600	          0.00000000	          5.29108000	          0.00000000	          0.00000000	          0.00000000	          0.00000000	          0.00000000	          0.00000000	          0.00000000	          0.00000000	          0.00000000	          0.00000000	
          2.03650000	        -15.41195400	        490.02623000	        -59.63918700	         -0.21321300	          0.00600000	         -0.40056000	          0.00000000	         -1.09577200	          0.00000000	        -39.58771400	        499.77178000	         66.69451700	         -0.20491300	          0.00600000	         -0.72207300	          0.00000000	          5.25267600	          0.00000000	          0.00000000	          0.00000000	          0.00000000	          0.00000000	          0.00000000	          0.00000000	          0.00000000	          0.00000000	          0.00000000	
          2.03700000	        -15.59341400	        490.02100100	        -59.70024800	         -0.21303400	          0.00600000	         -0.40054400	          0.00000000	         -1.10642000	          0.00000000	        -39.81741800	        499.90690600	         66.91984400	         -0.20472300	          0.00600000	         -0.72218000	          0.00000000	          5.21362000	          0.00000000	          0.00000000	          0.00000000	          0.00000000	          0.00000000	          0.00000000	          0.00000000	          0.00000000	          0.00000000	          0.00000000	
          2.03750000	        -15.77288500	        490.01777100	        -59.76222700	         -0.21285600	          0.00600000	         -0.40052800	          0.00000000	         -1.11695500	          0.00000000	        -40.04022300	        500.04746100	         67.14955200	         -0.20453500	          0.00600000	         -0.72228800	          0.00000000	          5.17394100	          0.00000000	          0.00000000	          0.00000000	          0.00000000	          0.00000000	          0.00000000	          0.00000000	          0.00000000	          0.00000000	          0.00000000	
          2.03800000	        -15.95021900	        490.01652500	        -59.82508600	         -0.21267700	          0.00600000	         -0.40051200	          0.00000000	         -1.12738900	          0.00000000	        -40.25611500	        500.19318300	         67.38381800	         -0.20434800	          0.00600000	         -0.72239600	          0.00000000	          5.13366000	          0.00000000	          0.00000000	          0.00000000	          0.00000000	          0.00000000	          0.00000000	          0.00000000	          0.00000000	          0.00000000	          0.00000000	
          2.03850000	        -16.12526400	        490.01722300	        -59.88876000	         -0.21249800	          0.00600000	         -0.40049500	          0.00000000	         -1.13773300	          0.00000000	        -40.46511700	        500.34376500	         67.62284000	         -0.20416400	          0.00600000	         -0.72250400	          0.00000000	          5.09279800	          0.00000000	          0.00000000	          0.00000000	          0.00000000	          0.00000000	          0.00000000	          0.00000000	          0.00000000	          0.00000000	          0.00000000	
          2.03900000	        -16.29786300	        490.01983100	        -59.95316300	         -0.21231900	          0.00600000	         -0.40047800	          0.00000000	         -1.14799100	          0.00000000	        -40.66729100	        500.49886700	         67.86683200	         -0.20398100	          0.00600000	         -0.72261300	          0.00000000	          5.05136700	          0.00000000	          0.00000000	          0.00000000	          0.00000000	          0.00000000	          0.00000000	          0.00000000	          0.00000000	          0.00000000	          0.00000000	
          2.03950000	        -16.46787100	        490.02433300	        -60.01818900	         -0.21214000	          0.00600000	         -0.40046100	          0.00000000	         -1.15816800	          0.00000000	        -40.86272500	        500.65813700	         68.11602600	         -0.20379900	          0.00600000	         -0.72272300	          0.00000000	          5.00937800	          0.00000000	          0.00000000	          0.00000000	          0.00000000	          0.00000000	          0.00000000	          0.00000000	          0.00000000	          0.00000000	          0.00000000	
